<svg xmlns="http://www.w3.org/2000/svg" width="711.491" height="570.881" viewBox="0 0 711.491 570.881">
  <g id="Group_7" data-name="Group 7" transform="translate(226.716 -533.457) rotate(-73)">
    <path id="Path_37" data-name="Path 37" d="M-822.645,658.028c131.405,48.479,184.691-33.737,257.324-321.949s-48.045-283.2-127.2-281.184-110.841.176-190,162.413-72.724,274.575-50.451,323.116S-822.645,658.028-822.645,658.028Z" fill="none" stroke="#271f23" stroke-width="3"/>
    <path id="Path_38" data-name="Path 38" d="M-834.076,602.854c119.393,44.047,167.807-30.653,233.8-292.517S-643.929,53.028-715.851,54.859s-100.708.16-172.63,147.565S-954.557,451.9-934.32,496-834.076,602.854-834.076,602.854Z" transform="translate(19 38.366)" fill="none" stroke="#271f23" stroke-width="3"/>
    <path id="Path_39" data-name="Path 39" d="M-846.17,544.475c106.682,39.357,149.942-27.39,208.909-261.375S-676.266,53.184-740.531,54.82s-89.987.143-154.252,131.856S-953.824,409.59-935.742,449-846.17,544.475-846.17,544.475Z" transform="translate(40 68.006)" fill="none" stroke="#271f23" stroke-width="3"/>
  </g>
</svg>
