<?xml version="1.0" encoding="utf-8"?>
<!-- Generator: Adobe Illustrator 24.1.0, SVG Export Plug-In . SVG Version: 6.00 Build 0)  -->
<svg version="1.1" id="Layer_1" xmlns="http://www.w3.org/2000/svg" xmlns:xlink="http://www.w3.org/1999/xlink" x="0px" y="0px"
	 viewBox="0 0 1140 1140" style="enable-background:new 0 0 1140 1140;" xml:space="preserve">
<style type="text/css">
	.st0{fill:none;}
</style>
<g>
	<g>
		<circle class="st0" cx="570.91" cy="552.41" r="421.55"/>
		<path d="M115.03,372.32l1.72-3.88c1.6-3.59,1.62-6.67,0.07-9.25l-23.7-38.73c-1.29-2.12-1.9-4.16-1.84-6.1
			c0.06-1.95,0.63-4.12,1.69-6.51l9.38-21.1l28.5,49.8c1.04,1.78,1.8,3.49,2.27,5.14c0.47,1.64,0.77,3.24,0.89,4.78
			c1.48-1.52,3.14-2.77,4.98-3.76c1.84-0.99,4.02-1.67,6.54-2.04l62.56-10.02l-9.64,21.68c-0.62,1.39-1.24,2.53-1.87,3.43
			c-0.63,0.9-1.29,1.62-1.99,2.17c-0.7,0.55-1.44,0.96-2.23,1.24c-0.78,0.28-1.64,0.5-2.57,0.66l-46.92,7.51
			c-1.72,0.27-3.15,0.94-4.29,2.01c-1.13,1.07-2.2,2.73-3.2,4.98l-2.62,5.89l44.5,19.78l-10.78,24.26L61.9,377.76l10.78-24.26
			L115.03,372.32z"/>
		<path d="M299.05,224.88l-13.88,15.2c-1.55,1.7-3.23,2.74-5.03,3.12c-1.8,0.38-3.51,0.22-5.14-0.49l-19.29-8.46l-29.34,32.14
			l10.18,18.44c0.73,1.38,1.02,3.02,0.86,4.94c-0.15,1.92-0.97,3.69-2.46,5.31l-13.98,15.31L166.34,200.5l18.32-20.07L299.05,224.88
			z M217.17,249.68l21.08-23.09L208,213.23c-1.93-0.84-4.2-1.83-6.81-2.97c-2.61-1.14-5.38-2.44-8.3-3.9
			c1.79,2.77,3.4,5.41,4.81,7.9c1.41,2.49,2.59,4.7,3.53,6.62L217.17,249.68z"/>
		<path d="M327.67,72.52l11.06,17.91l-27.4,16.92l49.08,79.46l-22.59,13.95l-49.08-79.46l-27.4,16.92l-11.06-17.91L327.67,72.52z"/>
		<path d="M516.43,131.43l-25.9,6.51l-11.8-46.93l-45.1,11.34l11.8,46.93l-25.9,6.51L391.62,44.8l25.9-6.51l11.66,46.39l45.1-11.34
			l-11.66-46.39l25.9-6.51L516.43,131.43z"/>
		<path d="M638.72,19.22l-1.09,20.39l-46.91-2.52l-1.43,26.67l35.92,1.93l-1.05,19.61l-35.92-1.93l-1.46,27.22l46.9,2.52l-1.1,20.39
			l-73.57-3.95l6.14-114.28L638.72,19.22z"/>
		<path d="M710.23,109.52l-14.13,39.91l-25.03-8.86l38.21-107.88l35.1,12.43c7.8,2.76,14.17,5.92,19.1,9.47
			c4.94,3.55,8.64,7.38,11.1,11.47c2.47,4.1,3.8,8.37,4,12.83c0.2,4.46-0.52,8.98-2.14,13.57c-1.24,3.51-2.88,6.65-4.92,9.42
			c-2.04,2.78-4.45,5.16-7.24,7.14c-2.79,1.99-5.89,3.54-9.32,4.66c-3.42,1.12-7.12,1.73-11.1,1.82c1.38,1.43,2.58,3.03,3.6,4.77
			c1.02,1.75,1.76,3.71,2.21,5.87l9.66,45.67l-22.66-8.02c-4.2-1.49-6.65-4.13-7.35-7.94l-6.83-37.67c-0.3-1.66-0.88-2.98-1.73-3.94
			c-0.85-0.97-2.24-1.79-4.16-2.48L710.23,109.52z M716.34,92.26l10.07,3.57c3.41,1.21,6.46,1.8,9.16,1.78
			c2.7-0.01,5.09-0.52,7.16-1.51c2.07-0.99,3.82-2.38,5.23-4.19c1.42-1.8,2.54-3.89,3.38-6.26c1.68-4.74,1.45-8.99-0.69-12.75
			c-2.14-3.76-6.45-6.78-12.91-9.07l-10.07-3.57L716.34,92.26z"/>
		<path d="M813.72,207.55l-22.31-14.68l62.93-95.59l22.31,14.68L813.72,207.55z"/>
		<path d="M948.06,170.23c0.45,0.66,0.77,1.31,0.98,1.97c0.21,0.66,0.3,1.38,0.3,2.16c-0.01,0.78-0.09,1.74-0.27,2.88l-14.88,86.35
			c1.5-1.62,2.98-3.17,4.45-4.62c1.47-1.46,2.89-2.8,4.25-4.02l45.09-40.43l15.63,17.43l-85.21,76.41l-9.23-10.29
			c-1.36-1.52-2.28-3.02-2.76-4.49c-0.48-1.47-0.53-3.25-0.15-5.35l14.73-85.7c-1.38,1.45-2.74,2.84-4.09,4.2
			c-1.35,1.35-2.65,2.59-3.9,3.71l-45.67,40.96l-15.63-17.43l85.21-76.41l9.34,10.41C947.01,168.82,947.62,169.58,948.06,170.23z"/>
		<path d="M1074.49,364.7l-18.58,8.48l-19.5-42.73l-24.3,11.09l14.94,32.73l-17.86,8.15l-14.94-32.73l-24.8,11.32l19.5,42.73
			l-18.58,8.48l-30.59-67.03l104.12-47.52L1074.49,364.7z"/>
	</g>
	<g>
		<circle class="st0" cx="569.59" cy="551.09" r="421.5"/>
		<path d="M136.46,850.83l-33.19,24.4l-16.94-23.03l99.29-73l25.75,35.03c5.14,7,8.73,13.61,10.77,19.85
			c2.03,6.24,2.79,12.05,2.27,17.44c-0.52,5.39-2.19,10.3-5,14.75c-2.82,4.45-6.52,8.36-11.11,11.74
			c-4.95,3.64-10.08,6.19-15.38,7.64c-5.3,1.45-10.63,1.62-15.99,0.52c-5.36-1.1-10.71-3.55-16.06-7.35
			c-5.35-3.8-10.54-9.13-15.59-15.99L136.46,850.83z M153.83,838.05l8.82,11.99c4.41,6,9.01,9.26,13.81,9.79
			c4.8,0.53,9.77-1.09,14.9-4.86c2.27-1.67,4.09-3.53,5.45-5.58c1.36-2.05,2.2-4.26,2.52-6.63c0.32-2.37,0.07-4.88-0.76-7.53
			c-0.83-2.65-2.31-5.42-4.45-8.33l-8.82-11.99L153.83,838.05z"/>
		<path d="M280.91,1044.05l-17.78-13.23c-1.99-1.48-3.29-3.17-3.88-5.05c-0.6-1.89-0.61-3.74-0.03-5.56l6.99-21.58l-37.59-27.98
			l-18.66,12.89c-1.4,0.93-3.13,1.42-5.2,1.46c-2.07,0.04-4.05-0.65-5.95-2.06l-17.91-13.33l111.85-70.37l23.48,17.47
			L280.91,1044.05z M245.53,958.99l27,20.1l11.06-33.84c0.69-2.16,1.51-4.69,2.45-7.61c0.94-2.92,2.04-6.02,3.29-9.31
			c-2.78,2.22-5.43,4.22-7.94,6c-2.52,1.78-4.76,3.28-6.72,4.49L245.53,958.99z"/>
		<path d="M408.81,967.23c0.78,0.35,1.45,0.77,2.01,1.26c0.56,0.49,1.06,1.09,1.49,1.81c0.43,0.72,0.89,1.65,1.38,2.79l35.12,87.58
			c0.46-2.33,0.94-4.59,1.47-6.75c0.52-2.17,1.07-4.2,1.63-6.09l18.51-62.53l24.17,7.15l-34.98,118.17l-14.28-4.23
			c-2.11-0.62-3.8-1.48-5.06-2.56c-1.27-1.08-2.32-2.69-3.16-4.82l-34.88-86.89c-0.45,2.1-0.91,4.16-1.38,6.16
			c-0.48,2.01-0.97,3.87-1.48,5.6l-18.75,63.34l-24.17-7.15l34.98-118.17l14.44,4.27C407.04,966.53,408.03,966.88,408.81,967.23z"/>
		<path d="M608.75,1096.92c3.94-0.22,7.41-0.76,10.41-1.61c3-0.85,5.82-1.91,8.46-3.19l-1.06-18.66l-12.16,0.69
			c-1.8,0.1-3.24-0.3-4.3-1.2c-1.07-0.9-1.64-2.08-1.73-3.54l-0.89-15.71l43.74-2.48l2.95,51.93c-3.02,2.49-6.19,4.66-9.5,6.51
			c-3.31,1.86-6.87,3.43-10.66,4.71c-3.8,1.29-7.86,2.31-12.19,3.06c-4.34,0.75-9.01,1.27-14.02,1.56
			c-9.01,0.51-17.43-0.61-25.27-3.35c-7.84-2.75-14.72-6.76-20.63-12.05c-5.92-5.28-10.69-11.68-14.3-19.18
			c-3.62-7.5-5.68-15.76-6.19-24.77c-0.52-9.17,0.52-17.69,3.13-25.55c2.6-7.86,6.58-14.73,11.92-20.63
			c5.34-5.89,11.94-10.62,19.78-14.17c7.85-3.55,16.72-5.61,26.63-6.17c5.12-0.29,9.96-0.14,14.51,0.45
			c4.55,0.59,8.77,1.51,12.65,2.76c3.88,1.25,7.46,2.8,10.73,4.64c3.27,1.85,6.2,3.88,8.82,6.11l-7.56,13.05
			c-0.72,1.23-1.61,2.21-2.67,2.95c-1.06,0.74-2.24,1.14-3.53,1.22c-1.69,0.1-3.47-0.37-5.33-1.39c-2.33-1.22-4.52-2.27-6.57-3.14
			c-2.05-0.87-4.14-1.56-6.26-2.06c-2.12-0.5-4.34-0.83-6.66-0.98c-2.32-0.15-4.92-0.14-7.79,0.02c-5.35,0.3-10.11,1.52-14.28,3.65
			c-4.17,2.13-7.67,5-10.48,8.6c-2.82,3.61-4.91,7.86-6.27,12.77c-1.36,4.91-1.87,10.32-1.54,16.23c0.37,6.53,1.6,12.28,3.69,17.24
			c2.09,4.96,4.82,9.1,8.2,12.41c3.38,3.31,7.3,5.76,11.77,7.34C598.75,1096.57,603.57,1097.22,608.75,1096.92z"/>
		<path d="M777.54,946.96l8.3,21.09l-32.27,12.7l36.82,93.59l-26.6,10.47l-36.82-93.59l-32.27,12.7l-8.3-21.09L777.54,946.96z"/>
		<path d="M969.43,958.97L952,972.65c-1.95,1.53-3.92,2.34-5.9,2.42c-1.98,0.08-3.77-0.39-5.37-1.43l-18.99-12.41l-36.86,28.93
			l7.54,21.39c0.53,1.59,0.55,3.39,0.04,5.4c-0.5,2.01-1.69,3.74-3.55,5.21l-17.57,13.79l-38.55-126.4l23.02-18.07L969.43,958.97z
			 M878.06,970.79L904.54,950l-29.75-19.55c-1.9-1.23-4.13-2.69-6.7-4.36c-2.57-1.67-5.28-3.55-8.12-5.62
			c1.41,3.26,2.65,6.34,3.7,9.24c1.06,2.9,1.91,5.45,2.57,7.66L878.06,970.79z"/>
		<path d="M1005.89,836.13l38.5,26.71l-16.3,23.49l-38.5-26.71l-88.21-6.84l14.37-20.71c1.41-2.04,3.01-3.33,4.8-3.88
			c1.79-0.55,3.68-0.67,5.67-0.39l39.4,6.12c3.17,0.48,6.08,0.93,8.75,1.33c2.67,0.41,5.23,0.92,7.69,1.53
			c-1.51-2.08-2.93-4.29-4.24-6.65c-1.32-2.35-2.75-4.89-4.29-7.61l-19.63-34.62c-0.41-0.7-0.75-1.5-1.01-2.4
			c-0.26-0.9-0.42-1.84-0.48-2.8c-0.05-0.96,0.05-1.95,0.31-2.97c0.26-1.02,0.73-2.02,1.41-2.99l14.46-20.85L1005.89,836.13z"/>
	</g>
</g>
</svg>
